<svg xmlns="http://www.w3.org/2000/svg" xmlns:xlink="http://www.w3.org/1999/xlink" width="500" zoomAndPan="magnify" viewBox="0 0 375 374.999991" height="500" preserveAspectRatio="xMidYMid meet" version="1.0"><defs><g/><clipPath id="7ae12bdfba"><path d="M 19.386719 41.03125 L 355.386719 41.03125 L 355.386719 334 L 19.386719 334 Z M 19.386719 41.03125 " clip-rule="nonzero"/></clipPath></defs><g clip-path="url(#7ae12bdfba)"><path fill="#556d7b" d="M 30.535156 315.585938 L 40.988281 333.625 L 330.449219 333.625 L 210.917969 126.609375 L 162.765625 210.066406 L 183.511719 210.066406 L 210.917969 162.609375 L 299.25 315.585938 Z M 184.90625 41.375 L 50.585938 274.011719 L 227.175781 274.011719 L 202.789062 231.742188 L 212.542969 212.699219 L 247.921875 274.011719 L 258.375 292.050781 L 19.386719 292.050781 L 164.082031 41.375 Z M 345.238281 312.101562 L 210.917969 79.464844 L 182.507812 128.625 L 162.222656 163.769531 L 122.664062 232.363281 L 172.828125 232.363281 L 183.28125 250.402344 L 91.386719 250.402344 L 210.917969 43.464844 L 355.609375 294.140625 Z M 345.238281 312.101562 " fill-opacity="1" fill-rule="evenodd"/></g><g fill="#556d7b" fill-opacity="1"><g transform="translate(50.759817, 205.384088)"><g><path d="M 8.0625 -12.703125 C 7.101562 -11.085938 5.90625 -9.753906 4.46875 -8.703125 C 3.03125 -7.660156 1.460938 -6.925781 -0.234375 -6.5 C -1.929688 -6.070312 -3.644531 -5.96875 -5.375 -6.1875 C -7.113281 -6.40625 -8.78125 -6.992188 -10.375 -7.953125 C -11.96875 -8.910156 -13.273438 -10.101562 -14.296875 -11.53125 C -15.316406 -12.96875 -16.03125 -14.53125 -16.4375 -16.21875 C -16.84375 -17.914062 -16.921875 -19.644531 -16.671875 -21.40625 C -16.421875 -23.164062 -15.816406 -24.851562 -14.859375 -26.46875 C -14.253906 -27.46875 -13.5625 -28.367188 -12.78125 -29.171875 C -12.007812 -29.972656 -11.179688 -30.640625 -10.296875 -31.171875 C -9.929688 -31.390625 -9.5625 -31.488281 -9.1875 -31.46875 C -8.8125 -31.457031 -8.472656 -31.363281 -8.171875 -31.1875 C -7.660156 -30.875 -7.300781 -30.425781 -7.09375 -29.84375 C -6.894531 -29.269531 -6.953125 -28.71875 -7.265625 -28.1875 C -7.367188 -28.019531 -7.5 -27.859375 -7.65625 -27.703125 C -7.8125 -27.546875 -7.984375 -27.40625 -8.171875 -27.28125 C -8.710938 -26.894531 -9.226562 -26.441406 -9.71875 -25.921875 C -10.207031 -25.410156 -10.648438 -24.828125 -11.046875 -24.171875 C -11.867188 -22.796875 -12.273438 -21.332031 -12.265625 -19.78125 C -12.253906 -18.226562 -11.867188 -16.769531 -11.109375 -15.40625 C -10.359375 -14.039062 -9.285156 -12.9375 -7.890625 -12.09375 C -6.503906 -11.269531 -5.03125 -10.84375 -3.46875 -10.8125 C -1.90625 -10.78125 -0.4375 -11.125 0.9375 -11.84375 C 2.3125 -12.5625 3.410156 -13.609375 4.234375 -14.984375 C 4.617188 -15.617188 4.972656 -16.359375 5.296875 -17.203125 C 5.628906 -18.046875 5.835938 -18.773438 5.921875 -19.390625 L 6.71875 -18.53125 L 1.265625 -21.796875 L 2.0625 -22.0625 L -0.046875 -18.53125 C -0.378906 -17.976562 -0.835938 -17.625 -1.421875 -17.46875 C -2.003906 -17.3125 -2.570312 -17.398438 -3.125 -17.734375 C -3.664062 -18.066406 -4.003906 -18.523438 -4.140625 -19.109375 C -4.285156 -19.691406 -4.191406 -20.257812 -3.859375 -20.8125 L -0.734375 -26.03125 C -0.398438 -26.582031 0.0546875 -26.925781 0.640625 -27.0625 C 1.222656 -27.207031 1.789062 -27.113281 2.34375 -26.78125 L 9.109375 -22.71875 C 9.523438 -22.46875 9.8125 -22.160156 9.96875 -21.796875 C 10.125 -21.429688 10.207031 -21.066406 10.21875 -20.703125 C 10.226562 -19.367188 10.0625 -18.019531 9.71875 -16.65625 C 9.382812 -15.289062 8.832031 -13.972656 8.0625 -12.703125 Z M 8.0625 -12.703125 "/></g></g></g><g fill="#556d7b" fill-opacity="1"><g transform="translate(64.063839, 183.231267)"><g><path d="M 1.78125 -7.375 C 2.332031 -7.039062 2.679688 -6.578125 2.828125 -5.984375 C 2.984375 -5.390625 2.894531 -4.816406 2.5625 -4.265625 C 2.238281 -3.734375 1.785156 -3.398438 1.203125 -3.265625 C 0.617188 -3.128906 0.0507812 -3.226562 -0.5 -3.5625 L -20.171875 -15.359375 C -20.722656 -15.691406 -21.070312 -16.15625 -21.21875 -16.75 C -21.375 -17.34375 -21.285156 -17.914062 -20.953125 -18.46875 C -20.617188 -19.019531 -20.160156 -19.359375 -19.578125 -19.484375 C -19.003906 -19.609375 -18.441406 -19.503906 -17.890625 -19.171875 Z M 1.78125 -7.375 "/></g></g></g><g fill="#556d7b" fill-opacity="1"><g transform="translate(69.224883, 174.637498)"><g><path d="M 6.390625 -9.90625 C 5.304688 -8.09375 3.988281 -6.75 2.4375 -5.875 C 0.882812 -5.007812 -0.75 -4.609375 -2.46875 -4.671875 C -4.195312 -4.734375 -5.878906 -5.253906 -7.515625 -6.234375 C -9.421875 -7.378906 -10.8125 -8.742188 -11.6875 -10.328125 C -12.570312 -11.910156 -13 -13.546875 -12.96875 -15.234375 C -12.9375 -16.929688 -12.503906 -18.476562 -11.671875 -19.875 C -11.015625 -20.957031 -10.171875 -21.84375 -9.140625 -22.53125 C -8.117188 -23.226562 -7 -23.710938 -5.78125 -23.984375 C -4.570312 -24.265625 -3.328125 -24.316406 -2.046875 -24.140625 C -0.765625 -23.972656 0.453125 -23.539062 1.609375 -22.84375 C 2.097656 -22.519531 2.390625 -22.070312 2.484375 -21.5 C 2.578125 -20.925781 2.46875 -20.382812 2.15625 -19.875 L -5.140625 -7.71875 L -8.90625 -8.6875 L -1.890625 -20.359375 L -1.671875 -19.28125 L -2.53125 -19.796875 C -3.164062 -20.128906 -3.847656 -20.242188 -4.578125 -20.140625 C -5.304688 -20.035156 -5.988281 -19.773438 -6.625 -19.359375 C -7.257812 -18.953125 -7.773438 -18.421875 -8.171875 -17.765625 C -8.554688 -17.128906 -8.828125 -16.484375 -8.984375 -15.828125 C -9.148438 -15.179688 -9.148438 -14.535156 -8.984375 -13.890625 C -8.816406 -13.242188 -8.46875 -12.597656 -7.9375 -11.953125 C -7.40625 -11.304688 -6.617188 -10.671875 -5.578125 -10.046875 C -4.421875 -9.359375 -3.300781 -9.015625 -2.21875 -9.015625 C -1.132812 -9.015625 -0.160156 -9.269531 0.703125 -9.78125 C 1.566406 -10.289062 2.25 -10.972656 2.75 -11.828125 C 3.226562 -12.609375 3.539062 -13.265625 3.6875 -13.796875 C 3.84375 -14.335938 3.914062 -14.804688 3.90625 -15.203125 C 3.90625 -15.609375 3.910156 -15.960938 3.921875 -16.265625 C 3.960938 -16.753906 4.082031 -17.171875 4.28125 -17.515625 C 4.570312 -17.984375 4.96875 -18.273438 5.46875 -18.390625 C 5.96875 -18.515625 6.429688 -18.445312 6.859375 -18.1875 C 7.429688 -17.84375 7.769531 -17.234375 7.875 -16.359375 C 8.007812 -15.523438 7.953125 -14.503906 7.703125 -13.296875 C 7.460938 -12.097656 7.023438 -10.96875 6.390625 -9.90625 Z M 6.390625 -9.90625 "/></g></g></g><g fill="#556d7b" fill-opacity="1"><g transform="translate(80.502719, 155.858524)"><g><path d="M 6.390625 -9.90625 C 5.304688 -8.09375 3.988281 -6.75 2.4375 -5.875 C 0.882812 -5.007812 -0.75 -4.609375 -2.46875 -4.671875 C -4.195312 -4.734375 -5.878906 -5.253906 -7.515625 -6.234375 C -9.421875 -7.378906 -10.8125 -8.742188 -11.6875 -10.328125 C -12.570312 -11.910156 -13 -13.546875 -12.96875 -15.234375 C -12.9375 -16.929688 -12.503906 -18.476562 -11.671875 -19.875 C -11.015625 -20.957031 -10.171875 -21.84375 -9.140625 -22.53125 C -8.117188 -23.226562 -7 -23.710938 -5.78125 -23.984375 C -4.570312 -24.265625 -3.328125 -24.316406 -2.046875 -24.140625 C -0.765625 -23.972656 0.453125 -23.539062 1.609375 -22.84375 C 2.097656 -22.519531 2.390625 -22.070312 2.484375 -21.5 C 2.578125 -20.925781 2.46875 -20.382812 2.15625 -19.875 L -5.140625 -7.71875 L -8.90625 -8.6875 L -1.890625 -20.359375 L -1.671875 -19.28125 L -2.53125 -19.796875 C -3.164062 -20.128906 -3.847656 -20.242188 -4.578125 -20.140625 C -5.304688 -20.035156 -5.988281 -19.773438 -6.625 -19.359375 C -7.257812 -18.953125 -7.773438 -18.421875 -8.171875 -17.765625 C -8.554688 -17.128906 -8.828125 -16.484375 -8.984375 -15.828125 C -9.148438 -15.179688 -9.148438 -14.535156 -8.984375 -13.890625 C -8.816406 -13.242188 -8.46875 -12.597656 -7.9375 -11.953125 C -7.40625 -11.304688 -6.617188 -10.671875 -5.578125 -10.046875 C -4.421875 -9.359375 -3.300781 -9.015625 -2.21875 -9.015625 C -1.132812 -9.015625 -0.160156 -9.269531 0.703125 -9.78125 C 1.566406 -10.289062 2.25 -10.972656 2.75 -11.828125 C 3.226562 -12.609375 3.539062 -13.265625 3.6875 -13.796875 C 3.84375 -14.335938 3.914062 -14.804688 3.90625 -15.203125 C 3.90625 -15.609375 3.910156 -15.960938 3.921875 -16.265625 C 3.960938 -16.753906 4.082031 -17.171875 4.28125 -17.515625 C 4.570312 -17.984375 4.96875 -18.273438 5.46875 -18.390625 C 5.96875 -18.515625 6.429688 -18.445312 6.859375 -18.1875 C 7.429688 -17.84375 7.769531 -17.234375 7.875 -16.359375 C 8.007812 -15.523438 7.953125 -14.503906 7.703125 -13.296875 C 7.460938 -12.097656 7.023438 -10.96875 6.390625 -9.90625 Z M 6.390625 -9.90625 "/></g></g></g><g fill="#556d7b" fill-opacity="1"><g transform="translate(91.780555, 137.07955)"><g><path d="M 2.21875 -3.765625 C 1.851562 -3.148438 1.40625 -2.773438 0.875 -2.640625 C 0.351562 -2.515625 -0.210938 -2.640625 -0.828125 -3.015625 L -1.375 -3.328125 C -1.988281 -3.703125 -2.359375 -4.148438 -2.484375 -4.671875 C -2.617188 -5.203125 -2.503906 -5.773438 -2.140625 -6.390625 L -1.890625 -6.8125 C -1.515625 -7.425781 -1.0625 -7.796875 -0.53125 -7.921875 C -0.0078125 -8.054688 0.554688 -7.9375 1.171875 -7.5625 L 1.71875 -7.25 C 2.332031 -6.875 2.703125 -6.421875 2.828125 -5.890625 C 2.960938 -5.367188 2.84375 -4.800781 2.46875 -4.1875 Z M 2.21875 -3.765625 "/></g></g></g></svg>