<svg xmlns="http://www.w3.org/2000/svg" xmlns:xlink="http://www.w3.org/1999/xlink" width="400" zoomAndPan="magnify" viewBox="0 0 300 74.999997" height="100" preserveAspectRatio="xMidYMid meet" version="1.0"><defs><g/><clipPath id="202bb340c2"><path d="M 21.019531 4.269531 L 97.519531 4.269531 L 97.519531 71 L 21.019531 71 Z M 21.019531 4.269531 " clip-rule="nonzero"/></clipPath></defs><g fill="#556d7b" fill-opacity="1"><g transform="translate(100.880981, 62.054684)"><g><path d="M 28.921875 0.71875 C 25.304688 0.71875 21.925781 0.0507812 18.78125 -1.28125 C 15.632812 -2.613281 12.867188 -4.457031 10.484375 -6.8125 C 8.109375 -9.175781 6.242188 -11.90625 4.890625 -15 C 3.535156 -18.09375 2.859375 -21.425781 2.859375 -25 C 2.859375 -28.570312 3.535156 -31.90625 4.890625 -35 C 6.242188 -38.09375 8.109375 -40.816406 10.484375 -43.171875 C 12.867188 -45.523438 15.632812 -47.367188 18.78125 -48.703125 C 21.925781 -50.035156 25.304688 -50.703125 28.921875 -50.703125 C 31.160156 -50.703125 33.328125 -50.460938 35.421875 -49.984375 C 37.515625 -49.515625 39.441406 -48.804688 41.203125 -47.859375 C 41.921875 -47.472656 42.457031 -46.957031 42.8125 -46.3125 C 43.175781 -45.675781 43.359375 -45.023438 43.359375 -44.359375 C 43.359375 -43.210938 42.972656 -42.1875 42.203125 -41.28125 C 41.441406 -40.375 40.46875 -39.921875 39.28125 -39.921875 C 38.894531 -39.921875 38.5 -39.96875 38.09375 -40.0625 C 37.695312 -40.15625 37.304688 -40.300781 36.921875 -40.5 C 35.734375 -41.019531 34.472656 -41.421875 33.140625 -41.703125 C 31.804688 -41.992188 30.398438 -42.140625 28.921875 -42.140625 C 25.828125 -42.140625 23.003906 -41.363281 20.453125 -39.8125 C 17.910156 -38.269531 15.890625 -36.203125 14.390625 -33.609375 C 12.890625 -31.015625 12.140625 -28.144531 12.140625 -25 C 12.140625 -21.90625 12.890625 -19.046875 14.390625 -16.421875 C 15.890625 -13.804688 17.910156 -11.722656 20.453125 -10.171875 C 23.003906 -8.628906 25.828125 -7.859375 28.921875 -7.859375 C 30.347656 -7.859375 31.914062 -8 33.625 -8.28125 C 35.34375 -8.570312 36.753906 -8.953125 37.859375 -9.421875 L 37.203125 -7.28125 L 37.203125 -19.5 L 38.421875 -18.421875 L 30.5 -18.421875 C 29.257812 -18.421875 28.222656 -18.828125 27.390625 -19.640625 C 26.554688 -20.453125 26.140625 -21.476562 26.140625 -22.71875 C 26.140625 -23.945312 26.554688 -24.96875 27.390625 -25.78125 C 28.222656 -26.59375 29.257812 -27 30.5 -27 L 42.203125 -27 C 43.441406 -27 44.46875 -26.582031 45.28125 -25.75 C 46.09375 -24.914062 46.5 -23.878906 46.5 -22.640625 L 46.5 -7.5 C 46.5 -6.550781 46.269531 -5.765625 45.8125 -5.140625 C 45.363281 -4.523438 44.851562 -4.023438 44.28125 -3.640625 C 42.09375 -2.304688 39.703125 -1.242188 37.109375 -0.453125 C 34.515625 0.328125 31.785156 0.71875 28.921875 0.71875 Z M 28.921875 0.71875 "/></g></g></g><g fill="#556d7b" fill-opacity="1"><g transform="translate(150.585116, 62.054684)"><g><path d="M 13.921875 -4.359375 C 13.921875 -3.117188 13.503906 -2.082031 12.671875 -1.25 C 11.835938 -0.414062 10.804688 0 9.578125 0 C 8.378906 0 7.375 -0.414062 6.5625 -1.25 C 5.757812 -2.082031 5.359375 -3.117188 5.359375 -4.359375 L 5.359375 -48.5 C 5.359375 -49.738281 5.773438 -50.773438 6.609375 -51.609375 C 7.441406 -52.441406 8.476562 -52.859375 9.71875 -52.859375 C 10.957031 -52.859375 11.96875 -52.441406 12.75 -51.609375 C 13.53125 -50.773438 13.921875 -49.738281 13.921875 -48.5 Z M 13.921875 -4.359375 "/></g></g></g><g fill="#556d7b" fill-opacity="1"><g transform="translate(169.866899, 62.054684)"><g><path d="M 22.640625 0.71875 C 18.585938 0.71875 15.070312 -0.125 12.09375 -1.8125 C 9.125 -3.507812 6.84375 -5.804688 5.25 -8.703125 C 3.65625 -11.609375 2.859375 -14.894531 2.859375 -18.5625 C 2.859375 -22.851562 3.726562 -26.507812 5.46875 -29.53125 C 7.207031 -32.550781 9.476562 -34.867188 12.28125 -36.484375 C 15.09375 -38.109375 18.070312 -38.921875 21.21875 -38.921875 C 23.644531 -38.921875 25.941406 -38.421875 28.109375 -37.421875 C 30.273438 -36.421875 32.191406 -35.050781 33.859375 -33.3125 C 35.523438 -31.582031 36.84375 -29.570312 37.8125 -27.28125 C 38.789062 -25 39.28125 -22.570312 39.28125 -20 C 39.226562 -18.851562 38.773438 -17.921875 37.921875 -17.203125 C 37.066406 -16.492188 36.066406 -16.140625 34.921875 -16.140625 L 7.640625 -16.140625 L 5.5 -23.28125 L 31.71875 -23.28125 L 30.140625 -21.859375 L 30.140625 -23.78125 C 30.046875 -25.164062 29.554688 -26.40625 28.671875 -27.5 C 27.796875 -28.59375 26.703125 -29.457031 25.390625 -30.09375 C 24.078125 -30.738281 22.6875 -31.0625 21.21875 -31.0625 C 19.78125 -31.0625 18.441406 -30.867188 17.203125 -30.484375 C 15.972656 -30.109375 14.90625 -29.46875 14 -28.5625 C 13.09375 -27.664062 12.378906 -26.453125 11.859375 -24.921875 C 11.335938 -23.398438 11.078125 -21.472656 11.078125 -19.140625 C 11.078125 -16.566406 11.609375 -14.382812 12.671875 -12.59375 C 13.742188 -10.8125 15.125 -9.457031 16.8125 -8.53125 C 18.507812 -7.601562 20.3125 -7.140625 22.21875 -7.140625 C 23.976562 -7.140625 25.378906 -7.28125 26.421875 -7.5625 C 27.472656 -7.851562 28.316406 -8.203125 28.953125 -8.609375 C 29.597656 -9.015625 30.1875 -9.359375 30.71875 -9.640625 C 31.570312 -10.066406 32.378906 -10.28125 33.140625 -10.28125 C 34.191406 -10.28125 35.0625 -9.921875 35.75 -9.203125 C 36.4375 -8.492188 36.78125 -7.664062 36.78125 -6.71875 C 36.78125 -5.425781 36.113281 -4.257812 34.78125 -3.21875 C 33.539062 -2.164062 31.800781 -1.242188 29.5625 -0.453125 C 27.332031 0.328125 25.023438 0.71875 22.640625 0.71875 Z M 22.640625 0.71875 "/></g></g></g><g fill="#556d7b" fill-opacity="1"><g transform="translate(212.001157, 62.054684)"><g><path d="M 22.640625 0.71875 C 18.585938 0.71875 15.070312 -0.125 12.09375 -1.8125 C 9.125 -3.507812 6.84375 -5.804688 5.25 -8.703125 C 3.65625 -11.609375 2.859375 -14.894531 2.859375 -18.5625 C 2.859375 -22.851562 3.726562 -26.507812 5.46875 -29.53125 C 7.207031 -32.550781 9.476562 -34.867188 12.28125 -36.484375 C 15.09375 -38.109375 18.070312 -38.921875 21.21875 -38.921875 C 23.644531 -38.921875 25.941406 -38.421875 28.109375 -37.421875 C 30.273438 -36.421875 32.191406 -35.050781 33.859375 -33.3125 C 35.523438 -31.582031 36.84375 -29.570312 37.8125 -27.28125 C 38.789062 -25 39.28125 -22.570312 39.28125 -20 C 39.226562 -18.851562 38.773438 -17.921875 37.921875 -17.203125 C 37.066406 -16.492188 36.066406 -16.140625 34.921875 -16.140625 L 7.640625 -16.140625 L 5.5 -23.28125 L 31.71875 -23.28125 L 30.140625 -21.859375 L 30.140625 -23.78125 C 30.046875 -25.164062 29.554688 -26.40625 28.671875 -27.5 C 27.796875 -28.59375 26.703125 -29.457031 25.390625 -30.09375 C 24.078125 -30.738281 22.6875 -31.0625 21.21875 -31.0625 C 19.78125 -31.0625 18.441406 -30.867188 17.203125 -30.484375 C 15.972656 -30.109375 14.90625 -29.46875 14 -28.5625 C 13.09375 -27.664062 12.378906 -26.453125 11.859375 -24.921875 C 11.335938 -23.398438 11.078125 -21.472656 11.078125 -19.140625 C 11.078125 -16.566406 11.609375 -14.382812 12.671875 -12.59375 C 13.742188 -10.8125 15.125 -9.457031 16.8125 -8.53125 C 18.507812 -7.601562 20.3125 -7.140625 22.21875 -7.140625 C 23.976562 -7.140625 25.378906 -7.28125 26.421875 -7.5625 C 27.472656 -7.851562 28.316406 -8.203125 28.953125 -8.609375 C 29.597656 -9.015625 30.1875 -9.359375 30.71875 -9.640625 C 31.570312 -10.066406 32.378906 -10.28125 33.140625 -10.28125 C 34.191406 -10.28125 35.0625 -9.921875 35.75 -9.203125 C 36.4375 -8.492188 36.78125 -7.664062 36.78125 -6.71875 C 36.78125 -5.425781 36.113281 -4.257812 34.78125 -3.21875 C 33.539062 -2.164062 31.800781 -1.242188 29.5625 -0.453125 C 27.332031 0.328125 25.023438 0.71875 22.640625 0.71875 Z M 22.640625 0.71875 "/></g></g></g><g fill="#556d7b" fill-opacity="1"><g transform="translate(254.135416, 62.054684)"><g><path d="M 8.421875 -0.078125 C 7.046875 -0.078125 5.988281 -0.441406 5.25 -1.171875 C 4.507812 -1.910156 4.140625 -2.972656 4.140625 -4.359375 L 4.140625 -5.578125 C 4.140625 -6.953125 4.507812 -8.007812 5.25 -8.75 C 5.988281 -9.488281 7.046875 -9.859375 8.421875 -9.859375 L 9.359375 -9.859375 C 10.734375 -9.859375 11.789062 -9.488281 12.53125 -8.75 C 13.269531 -8.007812 13.640625 -6.953125 13.640625 -5.578125 L 13.640625 -4.359375 C 13.640625 -2.972656 13.269531 -1.910156 12.53125 -1.171875 C 11.789062 -0.441406 10.734375 -0.078125 9.359375 -0.078125 Z M 8.421875 -0.078125 "/></g></g></g><g clip-path="url(#202bb340c2)"><path fill="#556d7b" d="M 23.546875 66.558594 L 25.917969 70.648438 L 91.589844 70.648438 L 64.46875 23.683594 L 53.546875 42.617188 L 58.253906 42.617188 L 64.46875 31.851562 L 84.511719 66.558594 Z M 58.570312 4.347656 L 28.097656 57.125 L 68.160156 57.125 L 62.625 47.535156 L 64.839844 43.214844 L 72.867188 57.125 L 75.238281 61.21875 L 21.019531 61.21875 L 53.84375 4.347656 Z M 94.941406 65.765625 L 64.46875 12.988281 L 58.023438 24.140625 L 53.421875 32.117188 L 44.449219 47.675781 L 55.828125 47.675781 L 58.199219 51.769531 L 37.351562 51.769531 L 64.46875 4.820312 L 97.296875 61.691406 Z M 94.941406 65.765625 " fill-opacity="1" fill-rule="evenodd"/></g></svg>